<svg xmlns="http://www.w3.org/2000/svg" xmlns:xlink="http://www.w3.org/1999/xlink" version="1.1" x="0px" y="0px" viewBox="0 0 52 65" style="enable-background:new 0 0 52 52;" xml:space="preserve"><style type="text/css">
	.st0{fill:none;stroke:#000000;stroke-width:2;stroke-linecap:round;stroke-miterlimit:10;}
	.st1{fill:none;stroke:#000000;stroke-width:2;stroke-linejoin:round;stroke-miterlimit:10;}
	.st2{fill:none;stroke:#000000;stroke-width:2;stroke-linecap:round;stroke-linejoin:round;stroke-miterlimit:10;}
	.st3{fill:none;stroke:#000000;stroke-width:2;stroke-miterlimit:10;}
</style><g><g><path d="M34.2592773,50H17.7412109C13.4726563,50,10,46.5273438,10,42.2597656V13.4228516    c0-2.4755859,2.0146484-4.4902344,4.4907227-4.4902344h23.019043C39.9858398,8.9326172,42,10.9472656,42,13.4228516v28.8369141    C42,46.5273438,38.5273438,50,34.2592773,50z M14.4907227,10.9326172C13.1171875,10.9326172,12,12.0498047,12,13.4228516    v28.8369141C12,45.4248047,14.5756836,48,17.7412109,48h16.5180664C37.4248047,48,40,45.4248047,40,42.2597656V13.4228516    c0-1.3730469-1.1171875-2.4902344-2.4902344-2.4902344H14.4907227z"/></g><g><path d="M36.4780273,10.9326172H15.5219727C13.5800781,10.9326172,12,9.3525391,12,7.4111328V5.5224609    C12,3.5800781,13.5800781,2,15.5219727,2h20.9560547C38.4199219,2,40,3.5800781,40,5.5224609v1.8886719    C40,9.3525391,38.4199219,10.9326172,36.4780273,10.9326172z M15.5219727,4C14.6826172,4,14,4.6826172,14,5.5224609v1.8886719    C14,8.25,14.6826172,8.9326172,15.5219727,8.9326172h20.9560547C37.3173828,8.9326172,38,8.25,38,7.4111328V5.5224609    C38,4.6826172,37.3173828,4,36.4780273,4H15.5219727z"/></g><g><path d="M41,20H11c-0.5522461,0-1-0.4472656-1-1s0.4477539-1,1-1h30c0.5522461,0,1,0.4472656,1,1S41.5522461,20,41,20z"/></g><g><path d="M41,25H11c-0.5522461,0-1-0.4472656-1-1s0.4477539-1,1-1h30c0.5522461,0,1,0.4472656,1,1S41.5522461,25,41,25z"/></g><g><path d="M28.5356445,40.5361328c-0.2558594,0-0.5117188-0.0976563-0.7070313-0.2929688l-7.0712891-7.0712891    c-0.390625-0.390625-0.390625-1.0234375,0-1.4140625s1.0234375-0.390625,1.4140625,0l7.0712891,7.0712891    c0.390625,0.390625,0.390625,1.0234375,0,1.4140625C29.0473633,40.4384766,28.7915039,40.5361328,28.5356445,40.5361328z"/></g><g><path d="M29.2426758,35.5859375c-0.2558594,0-0.5117188-0.0976563-0.7070313-0.2929688l-2.8286133-2.828125    c-0.390625-0.390625-0.390625-1.0234375,0-1.4140625s1.0234375-0.390625,1.4140625,0l2.8286133,2.828125    c0.390625,0.390625,0.390625,1.0234375,0,1.4140625C29.7543945,35.4882813,29.4985352,35.5859375,29.2426758,35.5859375z"/></g><g><path d="M23.5859375,41.2431641c-0.2558594,0-0.5117188-0.0976563-0.7070313-0.2929688l-2.8286133-2.828125    c-0.390625-0.390625-0.390625-1.0234375,0-1.4140625s1.0234375-0.390625,1.4140625,0l2.8286133,2.828125    c0.390625,0.390625,0.390625,1.0234375,0,1.4140625C24.0976563,41.1455078,23.8417969,41.2431641,23.5859375,41.2431641z"/></g></g><text x="0" y="67" fill="#000000" font-size="5px" font-weight="bold" font-family="'Helvetica Neue', Helvetica, Arial-Unicode, Arial, Sans-serif">Created by DinosoftLab</text><text x="0" y="72" fill="#000000" font-size="5px" font-weight="bold" font-family="'Helvetica Neue', Helvetica, Arial-Unicode, Arial, Sans-serif">from the Noun Project</text></svg>